<?xml version="1.0" encoding="UTF-8"?>
<!DOCTYPE svg PUBLIC "-//W3C//DTD SVG 1.1//EN" "http://www.w3.org/Graphics/SVG/1.1/DTD/svg11.dtd">
<svg xmlns="http://www.w3.org/2000/svg" version="1.1" width="1024px" height="875px" style="shape-rendering:geometricPrecision; text-rendering:geometricPrecision; image-rendering:optimizeQuality; fill-rule:evenodd; clip-rule:evenodd" xmlns:xlink="http://www.w3.org/1999/xlink">
<g><path style="opacity:1" fill="#fefefe" d="M -0.5,-0.5 C 340.833,-0.5 682.167,-0.5 1023.5,-0.5C 1023.5,291.167 1023.5,582.833 1023.5,874.5C 682.167,874.5 340.833,874.5 -0.5,874.5C -0.5,582.833 -0.5,291.167 -0.5,-0.5 Z"/></g>
<g><path style="opacity:1" fill="#83dd9e" d="M 423.5,226.5 C 426.397,227.129 429.064,228.129 431.5,229.5C 428.284,229.655 425.617,228.655 423.5,226.5 Z"/></g>
<g><path style="opacity:1" fill="#3fbe5c" d="M 447.5,237.5 C 449.746,238.455 452.079,239.122 454.5,239.5C 454.216,242.777 454.549,245.943 455.5,249C 462.158,249.5 468.825,249.666 475.5,249.5C 469.017,250.761 462.351,251.261 455.5,251C 454.584,250.626 453.75,250.126 453,249.5C 452.502,246.518 452.335,243.518 452.5,240.5C 450.833,240.5 449.167,240.5 447.5,240.5C 447.5,239.5 447.5,238.5 447.5,237.5 Z"/></g>
<g><path style="opacity:1" fill="#d8fae0" d="M 443.5,234.5 C 447.456,234.621 451.122,235.621 454.5,237.5C 455.539,241.105 456.205,244.772 456.5,248.5C 464.167,248.5 471.833,248.5 479.5,248.5C 479.5,248.833 479.5,249.167 479.5,249.5C 478.167,249.5 476.833,249.5 475.5,249.5C 468.825,249.666 462.158,249.5 455.5,249C 454.549,245.943 454.216,242.777 454.5,239.5C 452.079,239.122 449.746,238.455 447.5,237.5C 446.167,236.5 444.833,235.5 443.5,234.5 Z"/></g>
<g><path style="opacity:1" fill="#58cb76" d="M 479.5,249.5 C 479.5,249.167 479.5,248.833 479.5,248.5C 484.833,248.5 490.167,248.5 495.5,248.5C 495.5,251.833 495.5,255.167 495.5,258.5C 494.307,258.03 493.64,257.03 493.5,255.5C 493.84,253.488 494.173,251.488 494.5,249.5C 489.5,249.5 484.5,249.5 479.5,249.5 Z"/></g>
<g><path style="opacity:1" fill="#72d48c" d="M 651.5,257.5 C 642.025,257.02 632.691,257.687 623.5,259.5C 625.734,257.554 628.401,256.387 631.5,256C 636.833,255.333 642.167,255.333 647.5,256C 649.058,256.21 650.391,256.71 651.5,257.5 Z"/></g>
<g><path style="opacity:1" fill="#d2f8db" d="M 392.5,258.5 C 392.343,259.873 392.51,261.207 393,262.5C 395.415,263.132 397.582,264.132 399.5,265.5C 395.196,265.868 392.196,264.201 390.5,260.5C 390.747,259.287 391.414,258.62 392.5,258.5 Z"/></g>
<g><path style="opacity:1" fill="#9fe8b2" d="M 659.5,258.5 C 661.967,258.755 663.967,259.755 665.5,261.5C 663.033,261.245 661.033,260.245 659.5,258.5 Z"/></g>
<g><path style="opacity:1" fill="#07b837" d="M 423.5,226.5 C 425.617,228.655 428.284,229.655 431.5,229.5C 435.062,232.023 439.062,233.69 443.5,234.5C 444.833,235.5 446.167,236.5 447.5,237.5C 447.5,238.5 447.5,239.5 447.5,240.5C 449.167,240.5 450.833,240.5 452.5,240.5C 452.335,243.518 452.502,246.518 453,249.5C 453.75,250.126 454.584,250.626 455.5,251C 462.351,251.261 469.017,250.761 475.5,249.5C 476.833,249.5 478.167,249.5 479.5,249.5C 484.5,249.5 489.5,249.5 494.5,249.5C 494.173,251.488 493.84,253.488 493.5,255.5C 493.64,257.03 494.307,258.03 495.5,258.5C 497.402,263.305 500.069,267.638 503.5,271.5C 503.738,273.404 504.738,274.738 506.5,275.5C 513.49,282.845 521.49,289.012 530.5,294C 533.353,295.43 536.353,296.263 539.5,296.5C 541.438,298.163 543.772,298.829 546.5,298.5C 547.167,298.833 547.833,299.167 548.5,299.5C 554.987,300.654 561.654,300.821 568.5,300C 569.737,299.768 570.737,299.268 571.5,298.5C 574.294,297.079 577.294,296.079 580.5,295.5C 583.915,294.805 586.582,293.138 588.5,290.5C 589.659,288.75 591.326,287.75 593.5,287.5C 598.23,283.773 602.23,279.44 605.5,274.5C 608.537,270.463 612.203,267.129 616.5,264.5C 619.165,263.148 621.498,261.482 623.5,259.5C 632.691,257.687 642.025,257.02 651.5,257.5C 654.167,257.833 656.833,258.167 659.5,258.5C 661.033,260.245 663.033,261.245 665.5,261.5C 673.239,265.408 678.739,271.408 682,279.5C 682.792,288.911 682.292,298.244 680.5,307.5C 678.272,311.076 677.272,315.076 677.5,319.5C 676.076,321.515 675.41,323.848 675.5,326.5C 675.5,326.833 675.5,327.167 675.5,327.5C 674.232,329.905 673.565,332.572 673.5,335.5C 672.076,337.515 671.41,339.848 671.5,342.5C 671.5,342.833 671.5,343.167 671.5,343.5C 668.858,346.192 667.858,349.525 668.5,353.5C 668.5,354.833 668.5,356.167 668.5,357.5C 666.989,360.544 666.322,363.878 666.5,367.5C 663.939,372.411 662.606,377.744 662.5,383.5C 661.662,383.842 661.328,384.508 661.5,385.5C 658.925,387.845 657.925,390.845 658.5,394.5C 658.5,396.167 658.5,397.833 658.5,399.5C 656.723,402.505 655.723,405.838 655.5,409.5C 655.039,413.212 654.373,416.879 653.5,420.5C 651.783,423.845 651.116,427.511 651.5,431.5C 651.167,431.5 650.833,431.5 650.5,431.5C 649.343,434.273 648.676,437.273 648.5,440.5C 647.935,442.952 647.268,445.285 646.5,447.5C 645.475,450.974 644.808,454.64 644.5,458.5C 643.833,460.167 643.167,461.833 642.5,463.5C 640.395,466.408 639.395,469.742 639.5,473.5C 639.154,478.216 638.487,482.883 637.5,487.5C 635.96,489.838 635.294,492.505 635.5,495.5C 633.548,500.564 632.215,505.897 631.5,511.5C 630.076,513.515 629.41,515.848 629.5,518.5C 627.396,526.782 625.396,535.115 623.5,543.5C 623.5,544.5 623.5,545.5 623.5,546.5C 621.425,550.474 620.425,554.808 620.5,559.5C 618.565,564.573 617.232,569.906 616.5,575.5C 614.548,580.564 613.215,585.897 612.5,591.5C 611.596,592.209 611.263,593.209 611.5,594.5C 614.167,594.5 616.833,594.5 619.5,594.5C 621.843,595.344 624.176,596.344 626.5,597.5C 633.463,606.531 632.796,615.198 624.5,623.5C 623.833,623.5 623.5,623.833 623.5,624.5C 617.153,626.493 610.82,628.16 604.5,629.5C 603.662,629.842 603.328,630.508 603.5,631.5C 601.96,633.838 601.294,636.505 601.5,639.5C 601.167,639.5 600.833,639.5 600.5,639.5C 599.883,639.611 599.383,639.944 599,640.5C 598.498,643.513 597.998,646.513 597.5,649.5C 543.5,649.5 489.5,649.5 435.5,649.5C 435.813,645.958 435.479,642.625 434.5,639.5C 434.167,639.5 433.833,639.5 433.5,639.5C 432.683,636.521 431.849,633.521 431,630.5C 428.357,629.024 426.19,627.024 424.5,624.5C 432.807,623.502 441.14,623.169 449.5,623.5C 461.5,623.5 473.5,623.5 485.5,623.5C 496.679,623.828 507.679,623.495 518.5,622.5C 526.296,622.595 526.296,621.762 518.5,620C 497.486,619.422 476.819,618.255 456.5,616.5C 456.629,614.784 456.962,613.117 457.5,611.5C 458.674,610.486 459.34,609.153 459.5,607.5C 463.844,603.139 462.844,600.472 456.5,599.5C 452.027,596.093 447.027,593.427 441.5,591.5C 432.279,586.6 423.613,580.933 415.5,574.5C 409.785,568.119 403.785,562.119 397.5,556.5C 396.92,554.251 395.587,552.585 393.5,551.5C 389.451,546.083 385.451,540.75 381.5,535.5C 381.573,533.973 380.906,532.973 379.5,532.5C 373.973,524.763 369.473,516.43 366,507.5C 362.635,498.244 359.801,488.911 357.5,479.5C 357.403,475.651 357.069,471.817 356.5,468C 356.801,463.235 357.801,459.401 359.5,456.5C 359.209,443.434 359.876,430.434 361.5,417.5C 363.421,411.777 364.421,405.777 364.5,399.5C 364.833,397.5 365.167,395.5 365.5,393.5C 367.074,391.898 367.741,389.898 367.5,387.5C 367.5,386.167 367.5,384.833 367.5,383.5C 369.277,380.495 370.277,377.162 370.5,373.5C 373.992,362.529 377.325,351.529 380.5,340.5C 381.634,338.034 381.801,335.367 381,332.5C 380.861,329.555 379.694,327.221 377.5,325.5C 377.5,324.833 377.5,324.167 377.5,323.5C 376.646,321.965 376.646,320.632 377.5,319.5C 391.812,323.916 405.812,329.249 419.5,335.5C 421.686,335.511 422.519,336.511 422,338.5C 418.031,340.647 414.531,343.313 411.5,346.5C 408.171,350.161 406.171,354.494 405.5,359.5C 403.415,361.684 402.415,364.351 402.5,367.5C 400.088,373.19 398.421,379.19 397.5,385.5C 396.076,387.515 395.41,389.848 395.5,392.5C 395.5,393.167 395.5,393.833 395.5,394.5C 393.806,401.32 392.473,408.32 391.5,415.5C 390.194,420.616 389.527,425.949 389.5,431.5C 388.833,442.008 388.167,452.674 387.5,463.5C 386.667,450.846 386.167,438.18 386,425.5C 384.908,423.869 384.075,422.202 383.5,420.5C 383.5,417.167 383.5,413.833 383.5,410.5C 383.5,408.5 383.5,406.5 383.5,404.5C 385.141,398.352 386.474,392.018 387.5,385.5C 390.237,380.264 392.237,374.598 393.5,368.5C 393.167,368.167 392.833,367.833 392.5,367.5C 389.623,372.464 387.956,377.798 387.5,383.5C 386.414,383.62 385.747,384.287 385.5,385.5C 383.942,391.544 382.609,397.544 381.5,403.5C 379.308,407.098 378.308,411.098 378.5,415.5C 376.591,420.52 375.591,425.853 375.5,431.5C 374.035,436.59 373.368,441.923 373.5,447.5C 373.502,451.018 373.835,454.351 374.5,457.5C 374.833,461.5 375.167,465.5 375.5,469.5C 375.41,472.152 376.076,474.485 377.5,476.5C 378.417,482.058 379.75,487.391 381.5,492.5C 393.412,522.744 412.746,547.077 439.5,565.5C 443.462,568.488 447.462,571.488 451.5,574.5C 452.171,575.847 452.171,577.014 451.5,578C 453.413,578.25 455.413,579.084 457.5,580.5C 461.315,580.311 464.648,579.311 467.5,577.5C 468.946,571.726 469.612,565.726 469.5,559.5C 469.5,556.833 469.5,554.167 469.5,551.5C 470.317,549.031 470.817,546.365 471,543.5C 471.5,532.839 471.667,522.172 471.5,511.5C 471.667,474.165 471.5,436.832 471,399.5C 470.817,396.635 470.317,393.969 469.5,391.5C 469.638,381.146 469.305,370.812 468.5,360.5C 468.2,351.988 467.533,343.655 466.5,335.5C 466.736,332.391 466.403,329.391 465.5,326.5C 465.877,321.547 465.211,316.881 463.5,312.5C 462.737,311.732 461.737,311.232 460.5,311C 454.485,310.576 448.485,310.076 442.5,309.5C 435.138,307.604 428.138,304.938 421.5,301.5C 420.713,299.896 419.38,299.229 417.5,299.5C 417.827,304.544 417.494,309.544 416.5,314.5C 409.528,312.517 402.861,309.684 396.5,306C 393.479,305.151 390.479,304.317 387.5,303.5C 386.588,302.262 386.421,300.928 387,299.5C 390.361,297.105 393.028,294.105 395,290.5C 395.172,283.987 395.672,277.653 396.5,271.5C 399.271,271.421 401.937,271.921 404.5,273C 411.557,276.184 418.557,279.517 425.5,283C 427.473,283.495 429.473,283.662 431.5,283.5C 431.762,282.022 431.429,280.689 430.5,279.5C 421.398,274.948 412.064,270.948 402.5,267.5C 402.027,266.094 401.027,265.427 399.5,265.5C 397.582,264.132 395.415,263.132 393,262.5C 392.51,261.207 392.343,259.873 392.5,258.5C 397.625,246.237 402.792,233.904 408,221.5C 408.414,221.043 408.914,220.709 409.5,220.5C 414.262,222.308 418.928,224.308 423.5,226.5 Z"/></g>
<g><path style="opacity:1" fill="#72d68c" d="M 623.5,259.5 C 621.498,261.482 619.165,263.148 616.5,264.5C 617.992,261.677 620.326,260.01 623.5,259.5 Z"/></g>
<g><path style="opacity:1" fill="#99eab1" d="M 503.5,271.5 C 505.262,272.262 506.262,273.596 506.5,275.5C 504.738,274.738 503.738,273.404 503.5,271.5 Z"/></g>
<g><path style="opacity:1" fill="#e0fae7" d="M 402.5,267.5 C 412.064,270.948 421.398,274.948 430.5,279.5C 431.429,280.689 431.762,282.022 431.5,283.5C 429.473,283.662 427.473,283.495 425.5,283C 418.557,279.517 411.557,276.184 404.5,273C 401.937,271.921 399.271,271.421 396.5,271.5C 398.5,270.167 400.5,268.833 402.5,267.5 Z"/></g>
<g><path style="opacity:1" fill="#5ace79" d="M 605.5,274.5 C 602.23,279.44 598.23,283.773 593.5,287.5C 596.77,282.56 600.77,278.227 605.5,274.5 Z"/></g>
<g><path style="opacity:1" fill="#fbfdfb" d="M 647.5,287.5 C 648.167,287.5 648.833,287.5 649.5,287.5C 649.705,290.988 650.539,294.321 652,297.5C 652.717,302.22 652.55,306.886 651.5,311.5C 651.5,312.167 651.5,312.833 651.5,313.5C 649.025,314.687 648.025,316.687 648.5,319.5C 645.955,324.597 643.955,329.931 642.5,335.5C 639.135,342.575 636.135,349.908 633.5,357.5C 632.883,357.611 632.383,357.944 632,358.5C 631.5,334.836 631.333,311.169 631.5,287.5C 636.826,286.26 642.159,286.26 647.5,287.5 Z"/></g>
<g><path style="opacity:1" fill="#6ad384" d="M 588.5,290.5 C 586.582,293.138 583.915,294.805 580.5,295.5C 582.418,292.862 585.085,291.195 588.5,290.5 Z"/></g>
<g><path style="opacity:1" fill="#fafdfb" d="M 627.5,291.5 C 627.667,318.169 627.5,344.835 627,371.5C 626.105,374.951 624.938,378.284 623.5,381.5C 620.161,389.836 616.828,398.17 613.5,406.5C 612.883,406.611 612.383,406.944 612,407.5C 611.5,372.168 611.333,336.835 611.5,301.5C 612.167,301.5 612.5,301.167 612.5,300.5C 612.833,300.5 613.167,300.5 613.5,300.5C 617.827,297.001 622.494,294.001 627.5,291.5 Z"/></g>
<g><path style="opacity:1" fill="#d1f9e0" d="M 649.5,287.5 C 650.167,288.167 650.833,288.833 651.5,289.5C 651.756,292.598 652.422,295.598 653.5,298.5C 653.5,301.833 653.5,305.167 653.5,308.5C 653.573,310.027 652.906,311.027 651.5,311.5C 652.55,306.886 652.717,302.22 652,297.5C 650.539,294.321 649.705,290.988 649.5,287.5 Z"/></g>
<g><path style="opacity:1" fill="#b8f2cc" d="M 539.5,296.5 C 542.152,296.41 544.485,297.076 546.5,298.5C 543.772,298.829 541.438,298.163 539.5,296.5 Z"/></g>
<g><path style="opacity:1" fill="#bcf4c8" d="M 624.5,290.5 C 624.833,290.5 625.167,290.5 625.5,290.5C 626.492,290.328 627.158,290.662 627.5,291.5C 622.494,294.001 617.827,297.001 613.5,300.5C 616.599,296.466 620.266,293.132 624.5,290.5 Z"/></g>
<g><path style="opacity:1" fill="#54cc74" d="M 571.5,298.5 C 570.737,299.268 569.737,299.768 568.5,300C 561.654,300.821 554.987,300.654 548.5,299.5C 556.201,299.691 563.868,299.358 571.5,298.5 Z"/></g>
<g><path style="opacity:1" fill="#fdfefd" d="M 421.5,301.5 C 428.138,304.938 435.138,307.604 442.5,309.5C 443.78,310.931 445.447,311.598 447.5,311.5C 452.553,313.26 457.886,313.927 463.5,313.5C 463.624,318.049 464.291,322.382 465.5,326.5C 466.403,329.391 466.736,332.391 466.5,335.5C 466.334,342.841 466.5,350.174 467,357.5C 467.232,358.737 467.732,359.737 468.5,360.5C 469.305,370.812 469.638,381.146 469.5,391.5C 469.667,426.168 469.5,460.835 469,495.5C 468.406,499.321 467.906,503.155 467.5,507C 468.437,524.484 468.77,541.984 468.5,559.5C 467.866,565.145 467.532,570.811 467.5,576.5C 466.167,576.5 464.833,576.5 463.5,576.5C 455.642,571.658 448.308,565.991 441.5,559.5C 439.167,555.167 435.833,551.833 431.5,549.5C 412.074,527.858 399.074,502.858 392.5,474.5C 392.192,470.64 391.525,466.974 390.5,463.5C 390.321,447.484 390.654,431.484 391.5,415.5C 394.231,408.883 395.564,401.883 395.5,394.5C 395.5,393.833 395.5,393.167 395.5,392.5C 396.924,390.485 397.59,388.152 397.5,385.5C 401.155,380.183 402.822,374.183 402.5,367.5C 402.415,364.351 403.415,361.684 405.5,359.5C 406.688,358.316 407.855,358.316 409,359.5C 408.882,355.116 409.715,350.783 411.5,346.5C 414.531,343.313 418.031,340.647 422,338.5C 422.519,336.511 421.686,335.511 419.5,335.5C 420.152,334.275 421.319,333.608 423,333.5C 425.006,334.073 426.84,334.073 428.5,333.5C 427.199,331.556 426.199,329.556 425.5,327.5C 425.167,327.5 424.833,327.5 424.5,327.5C 423.71,326.206 422.71,325.039 421.5,324C 417.914,322.232 414.247,320.732 410.5,319.5C 409.521,317.855 408.188,316.521 406.5,315.5C 410.3,315.766 414.133,315.766 418,315.5C 418.499,310.845 418.666,306.179 418.5,301.5C 419.5,301.5 420.5,301.5 421.5,301.5 Z"/></g>
<g><path style="opacity:1" fill="#5fc77e" d="M 630.5,287.5 C 630.333,312.502 630.5,337.502 631,362.5C 631.383,361.944 631.883,361.611 632.5,361.5C 632.443,362.609 632.11,363.609 631.5,364.5C 630.883,364.389 630.383,364.056 630,363.5C 629.17,337.997 629.337,312.663 630.5,287.5 Z"/></g>
<g><path style="opacity:1" fill="#e4fbea" d="M 421.5,301.5 C 420.5,301.5 419.5,301.5 418.5,301.5C 418.666,306.179 418.499,310.845 418,315.5C 414.133,315.766 410.3,315.766 406.5,315.5C 408.188,316.521 409.521,317.855 410.5,319.5C 399.586,313.932 388.252,309.265 376.5,305.5C 377.097,304.861 377.93,304.528 379,304.5C 380.928,304.933 382.761,305.6 384.5,306.5C 386.516,306.484 387.516,305.484 387.5,303.5C 390.479,304.317 393.479,305.151 396.5,306C 402.861,309.684 409.528,312.517 416.5,314.5C 417.494,309.544 417.827,304.544 417.5,299.5C 419.38,299.229 420.713,299.896 421.5,301.5 Z"/></g>
<g><path style="opacity:1" fill="#52c271" d="M 653.5,298.5 C 654.94,299.946 655.607,301.779 655.5,304C 655.693,306.008 655.026,307.508 653.5,308.5C 653.5,305.167 653.5,301.833 653.5,298.5 Z"/></g>
<g><path style="opacity:1" fill="#93dda5" d="M 374.5,305.5 C 372.959,306.667 371.625,308 370.5,309.5C 368.972,309.483 368.472,308.816 369,307.5C 370.725,306.536 372.559,305.869 374.5,305.5 Z"/></g>
<g><path style="opacity:1" fill="#f9fefa" d="M 605.5,306.5 C 605.833,306.5 606.167,306.5 606.5,306.5C 607.498,343.663 607.832,380.996 607.5,418.5C 607.5,419.167 607.5,419.833 607.5,420.5C 606.542,420.953 605.708,421.619 605,422.5C 603.617,425.368 602.784,428.368 602.5,431.5C 601.262,433.214 600.595,435.214 600.5,437.5C 598.755,439.033 597.755,441.033 597.5,443.5C 595.523,448.797 593.523,454.13 591.5,459.5C 590.883,459.389 590.383,459.056 590,458.5C 589.167,412.163 589.333,365.83 590.5,319.5C 591.974,317.283 593.64,315.283 595.5,313.5C 599.368,311.971 602.701,309.637 605.5,306.5 Z"/></g>
<g><path style="opacity:1" fill="#47c067" d="M 442.5,309.5 C 448.485,310.076 454.485,310.576 460.5,311C 461.737,311.232 462.737,311.732 463.5,312.5C 458.138,312.528 452.805,312.194 447.5,311.5C 445.447,311.598 443.78,310.931 442.5,309.5 Z"/></g>
<g><path style="opacity:1" fill="#b7f0bd" d="M 680.5,307.5 C 680.342,311.841 679.342,315.841 677.5,319.5C 677.272,315.076 678.272,311.076 680.5,307.5 Z"/></g>
<g><path style="opacity:1" fill="#c4fad3" d="M 447.5,311.5 C 452.805,312.194 458.138,312.528 463.5,312.5C 465.211,316.881 465.877,321.547 465.5,326.5C 464.291,322.382 463.624,318.049 463.5,313.5C 457.886,313.927 452.553,313.26 447.5,311.5 Z"/></g>
<g><path style="opacity:1" fill="#a0e9b9" d="M 651.5,313.5 C 650.492,315.544 649.492,317.544 648.5,319.5C 648.025,316.687 649.025,314.687 651.5,313.5 Z"/></g>
<g><path style="opacity:1" fill="#23b149" d="M 651.5,289.5 C 650.833,288.833 650.167,288.167 649.5,287.5C 648.833,287.5 648.167,287.5 647.5,287.5C 644.785,286.114 641.785,285.447 638.5,285.5C 635.795,285.316 633.462,285.983 631.5,287.5C 631.167,287.5 630.833,287.5 630.5,287.5C 629.337,312.663 629.17,337.997 630,363.5C 630.383,364.056 630.883,364.389 631.5,364.5C 630.744,367.003 629.744,369.337 628.5,371.5C 628.5,344.167 628.5,316.833 628.5,289.5C 627.209,289.263 626.209,289.596 625.5,290.5C 625.167,290.5 624.833,290.5 624.5,290.5C 624.579,289.07 624.246,287.736 623.5,286.5C 632.472,284.207 641.472,284.04 650.5,286C 651.337,287.011 651.67,288.178 651.5,289.5 Z"/></g>
<g><path style="opacity:1" fill="#99ecb4" d="M 647.5,287.5 C 642.159,286.26 636.826,286.26 631.5,287.5C 633.462,285.983 635.795,285.316 638.5,285.5C 641.785,285.447 644.785,286.114 647.5,287.5 Z"/></g>
<g><path style="opacity:1" fill="#41bf5b" d="M 377.5,319.5 C 376.646,320.632 376.646,321.965 377.5,323.5C 376.518,322.859 375.518,322.193 374.5,321.5C 373.893,321.624 373.56,321.957 373.5,322.5C 371.856,327.59 370.856,332.923 370.5,338.5C 370.867,331.585 370.201,324.919 368.5,318.5C 368.5,317.5 368.5,316.5 368.5,315.5C 371.839,316.179 374.839,317.512 377.5,319.5 Z"/></g>
<g><path style="opacity:1" fill="#20b740" d="M 374.5,305.5 C 375.167,305.5 375.833,305.5 376.5,305.5C 388.252,309.265 399.586,313.932 410.5,319.5C 414.247,320.732 417.914,322.232 421.5,324C 422.71,325.039 423.71,326.206 424.5,327.5C 424.87,331.186 423.537,332.186 420.5,330.5C 405.108,324.493 389.775,318.493 374.5,312.5C 372.924,311.857 371.59,310.857 370.5,309.5C 371.625,308 372.959,306.667 374.5,305.5 Z"/></g>
<g><path style="opacity:1" fill="#fbfefc" d="M 584.5,322.5 C 585.833,346.491 586.5,370.824 586.5,395.5C 586.333,419.833 586.167,444.167 586,468.5C 585.059,471.154 584.226,473.821 583.5,476.5C 580.949,484.396 577.949,492.063 574.5,499.5C 573.883,499.611 573.383,499.944 573,500.5C 572.5,482.836 572.333,465.17 572.5,447.5C 572.845,407.45 573.845,367.45 575.5,327.5C 577.322,325.99 579.322,324.657 581.5,323.5C 582.391,322.89 583.391,322.557 584.5,322.5 Z"/></g>
<g><path style="opacity:1" fill="#42c05d" d="M 495.5,324.5 C 500.263,324.432 504.596,325.766 508.5,328.5C 508.863,329.183 509.196,329.85 509.5,330.5C 507.883,329.962 506.216,329.629 504.5,329.5C 502.176,328.344 499.843,327.344 497.5,326.5C 496.833,325.833 496.167,325.167 495.5,324.5 Z"/></g>
<g><path style="opacity:1" fill="#fdfefd" d="M 497.5,326.5 C 499.843,327.344 502.176,328.344 504.5,329.5C 505.105,331.026 506.271,332.026 508,332.5C 508.167,375.667 508.333,418.833 508.5,462C 508.5,505.505 507.833,548.672 506.5,591.5C 505.833,591.5 505.167,591.5 504.5,591.5C 503.209,591.737 502.209,591.404 501.5,590.5C 501.5,589.5 501.5,588.5 501.5,587.5C 498.014,588.171 495.347,587.171 493.5,584.5C 492.693,580.979 492.026,577.312 491.5,573.5C 491.331,568.819 490.998,564.152 490.5,559.5C 490.528,554.138 490.194,548.805 489.5,543.5C 487.92,484.846 487.253,426.179 487.5,367.5C 487.5,356.833 487.5,346.167 487.5,335.5C 488.323,332.023 488.823,328.356 489,324.5C 491.312,324.955 493.312,325.955 495,327.5C 495.671,326.748 496.504,326.414 497.5,326.5 Z"/></g>
<g><path style="opacity:1" fill="#99ebaf" d="M 677.5,319.5 C 677.59,322.152 676.924,324.485 675.5,326.5C 675.41,323.848 676.076,321.515 677.5,319.5 Z"/></g>
<g><path style="opacity:1" fill="#ecfbf0" d="M 374.5,312.5 C 389.775,318.493 405.108,324.493 420.5,330.5C 421.635,332.213 423.302,332.88 425.5,332.5C 425.5,330.833 425.5,329.167 425.5,327.5C 426.199,329.556 427.199,331.556 428.5,333.5C 426.84,334.073 425.006,334.073 423,333.5C 421.319,333.608 420.152,334.275 419.5,335.5C 405.812,329.249 391.812,323.916 377.5,319.5C 374.839,317.512 371.839,316.179 368.5,315.5C 368.5,316.5 368.5,317.5 368.5,318.5C 367.566,317.432 367.232,316.099 367.5,314.5C 370.388,315.01 372.721,314.344 374.5,312.5 Z"/></g>
<g><path style="opacity:1" fill="#9cebad" d="M 424.5,327.5 C 424.833,327.5 425.167,327.5 425.5,327.5C 425.5,329.167 425.5,330.833 425.5,332.5C 423.302,332.88 421.635,332.213 420.5,330.5C 423.537,332.186 424.87,331.186 424.5,327.5 Z"/></g>
<g><path style="opacity:1" fill="#cdfadd" d="M 487.5,321.5 C 490.406,321.957 493.072,322.957 495.5,324.5C 496.167,325.167 496.833,325.833 497.5,326.5C 496.504,326.414 495.671,326.748 495,327.5C 493.312,325.955 491.312,324.955 489,324.5C 488.823,328.356 488.323,332.023 487.5,335.5C 487.5,330.833 487.5,326.167 487.5,321.5 Z"/></g>
<g><path style="opacity:1" fill="#fcfdfc" d="M 566.5,331.5 C 567.833,361.493 568.5,391.826 568.5,422.5C 568.333,452.833 568.167,483.167 568,513.5C 566.812,514.563 566.312,515.897 566.5,517.5C 566.5,518.167 566.5,518.833 566.5,519.5C 564.755,521.033 563.755,523.033 563.5,525.5C 560.993,533.05 557.993,540.384 554.5,547.5C 553.883,547.611 553.383,547.944 553,548.5C 552.5,477.501 552.333,406.501 552.5,335.5C 556.078,335.451 559.411,334.785 562.5,333.5C 563.183,331.824 564.517,331.157 566.5,331.5 Z"/></g>
<g><path style="opacity:1" fill="#a1efb4" d="M 377.5,323.5 C 377.5,324.167 377.5,324.833 377.5,325.5C 376.883,325.389 376.383,325.056 376,324.5C 375.667,330.167 375.333,335.833 375,341.5C 374.434,343.723 373.6,345.723 372.5,347.5C 374.621,339.234 374.954,330.901 373.5,322.5C 373.56,321.957 373.893,321.624 374.5,321.5C 375.518,322.193 376.518,322.859 377.5,323.5 Z"/></g>
<g><path style="opacity:1" fill="#fdfefd" d="M 515.5,333.5 C 516.833,333.5 518.167,333.5 519.5,333.5C 521.882,335.046 524.549,335.713 527.5,335.5C 527.5,423.167 527.5,510.833 527.5,598.5C 526.5,598.5 525.5,598.5 524.5,598.5C 523.833,598.5 523.167,598.5 522.5,598.5C 520.579,597.637 518.579,596.971 516.5,596.5C 516.027,595.094 515.027,594.427 513.5,594.5C 513.333,507.833 513.5,421.166 514,334.5C 514.383,333.944 514.883,333.611 515.5,333.5 Z"/></g>
<g><path style="opacity:1" fill="#bcf5d1" d="M 675.5,327.5 C 676.036,330.698 675.369,333.365 673.5,335.5C 673.565,332.572 674.232,329.905 675.5,327.5 Z"/></g>
<g><path style="opacity:1" fill="#c7f2d5" d="M 377.5,325.5 C 379.694,327.221 380.861,329.555 381,332.5C 381.801,335.367 381.634,338.034 380.5,340.5C 379.403,335.6 378.403,330.6 377.5,325.5 Z"/></g>
<g><path style="opacity:1" fill="#36ad57" d="M 612.5,300.5 C 612.5,301.167 612.167,301.5 611.5,301.5C 610.336,337.998 610.169,374.664 611,411.5C 611.383,410.944 611.883,410.611 612.5,410.5C 611.183,413.453 610.183,416.453 609.5,419.5C 609.832,382.33 609.498,345.33 608.5,308.5C 608.719,307.325 608.386,306.325 607.5,305.5C 606.893,305.624 606.56,305.957 606.5,306.5C 606.167,306.5 605.833,306.5 605.5,306.5C 606.292,304.743 607.625,303.409 609.5,302.5C 608.189,301.742 607.689,300.742 608,299.5C 609.356,300.38 610.856,300.714 612.5,300.5 Z"/></g>
<g><path style="opacity:1" fill="#a5f6bd" d="M 611.5,301.5 C 611.333,336.835 611.5,372.168 612,407.5C 612.383,406.944 612.883,406.611 613.5,406.5C 613.167,407.833 612.833,409.167 612.5,410.5C 611.883,410.611 611.383,410.944 611,411.5C 610.169,374.664 610.336,337.998 611.5,301.5 Z"/></g>
<g><path style="opacity:1" fill="#fafdfb" d="M 546.5,335.5 C 547.5,335.5 548.5,335.5 549.5,335.5C 549.5,410.167 549.5,484.833 549.5,559.5C 548.508,561.456 547.508,563.456 546.5,565.5C 544.781,567.816 542.948,570.15 541,572.5C 539.633,571.476 538.8,571.976 538.5,574C 538.905,574.945 539.572,575.612 540.5,576C 537.798,578.118 537.131,580.618 538.5,583.5C 537.167,583.5 535.833,583.5 534.5,583.5C 534.5,586.833 534.5,590.167 534.5,593.5C 534.5,593.833 534.5,594.167 534.5,594.5C 533.883,594.611 533.383,594.944 533,595.5C 532.5,509.167 532.333,422.834 532.5,336.5C 537.363,336.819 542.03,336.486 546.5,335.5 Z"/></g>
<g><path style="opacity:1" fill="#86dc9e" d="M 673.5,335.5 C 673.59,338.152 672.924,340.485 671.5,342.5C 671.41,339.848 672.076,337.515 673.5,335.5 Z"/></g>
<g><path style="opacity:1" fill="#d0fee1" d="M 630.5,287.5 C 630.833,287.5 631.167,287.5 631.5,287.5C 631.333,311.169 631.5,334.836 632,358.5C 632.383,357.944 632.883,357.611 633.5,357.5C 633.5,358.167 633.5,358.833 633.5,359.5C 632.662,359.842 632.328,360.508 632.5,361.5C 631.883,361.611 631.383,361.944 631,362.5C 630.5,337.502 630.333,312.502 630.5,287.5 Z"/></g>
<g><path style="opacity:1" fill="#2db84d" d="M 642.5,335.5 C 642.738,340.829 641.405,345.663 638.5,350C 637.839,352.464 637.339,354.964 637,357.5C 635.887,358.305 634.721,358.972 633.5,359.5C 633.5,358.833 633.5,358.167 633.5,357.5C 636.135,349.908 639.135,342.575 642.5,335.5 Z"/></g>
<g><path style="opacity:1" fill="#63c082" d="M 518.5,332.5 C 519.167,332.5 519.5,332.833 519.5,333.5C 518.167,333.5 516.833,333.5 515.5,333.5C 514.791,332.596 513.791,332.263 512.5,332.5C 512.5,397.5 512.5,462.5 512.5,527.5C 512.167,527.5 511.833,527.5 511.5,527.5C 511.5,462.167 511.5,396.833 511.5,331.5C 513.903,331.448 516.236,331.781 518.5,332.5 Z"/></g>
<g><path style="opacity:1" fill="#53c56e" d="M 671.5,343.5 C 671.167,346.167 670.833,348.833 670.5,351.5C 669.833,352.167 669.167,352.833 668.5,353.5C 667.858,349.525 668.858,346.192 671.5,343.5 Z"/></g>
<g><path style="opacity:1" fill="#37bc5e" d="M 571.5,328.5 C 571.5,368.167 571.5,407.833 571.5,447.5C 570.833,468.833 570.167,490.167 569.5,511.5C 569.5,451.167 569.5,390.833 569.5,330.5C 568.209,330.263 567.209,330.596 566.5,331.5C 564.517,331.157 563.183,331.824 562.5,333.5C 558.821,333.724 555.154,334.058 551.5,334.5C 551.5,393.5 551.5,452.5 551.5,511.5C 550.504,527.325 550.17,543.325 550.5,559.5C 550.167,559.5 549.833,559.5 549.5,559.5C 549.5,484.833 549.5,410.167 549.5,335.5C 548.5,335.5 547.5,335.5 546.5,335.5C 545.5,335.5 544.5,335.5 543.5,335.5C 548.408,333.62 553.741,332.62 559.5,332.5C 559.5,331.5 559.5,330.5 559.5,329.5C 561.833,329.5 564.167,329.5 566.5,329.5C 566.281,328.325 566.614,327.325 567.5,326.5C 568.368,328.796 569.702,329.463 571.5,328.5 Z"/></g>
<g><path style="opacity:1" fill="#c9fdd7" d="M 566.5,331.5 C 567.209,330.596 568.209,330.263 569.5,330.5C 569.5,390.833 569.5,451.167 569.5,511.5C 569.346,513.97 568.346,515.97 566.5,517.5C 566.312,515.897 566.812,514.563 568,513.5C 568.167,483.167 568.333,452.833 568.5,422.5C 568.5,391.826 567.833,361.493 566.5,331.5 Z"/></g>
<g><path style="opacity:1" fill="#eefef0" d="M 575.5,327.5 C 573.845,367.45 572.845,407.45 572.5,447.5C 572.5,407.833 572.5,368.167 572.5,328.5C 573.209,327.596 574.209,327.263 575.5,327.5 Z"/></g>
<g><path style="opacity:1" fill="#5cbf77" d="M 608.5,308.5 C 609.498,345.33 609.832,382.33 609.5,419.5C 608.833,419.833 608.167,420.167 607.5,420.5C 607.5,419.833 607.5,419.167 607.5,418.5C 608.498,382.004 608.832,345.337 608.5,308.5 Z"/></g>
<g><path style="opacity:1" fill="#a4e5ac" d="M 370.5,351.5 C 370.59,354.152 369.924,356.485 368.5,358.5C 368.41,355.848 369.076,353.515 370.5,351.5 Z"/></g>
<g><path style="opacity:1" fill="#bbf7cf" d="M 466.5,335.5 C 467.533,343.655 468.2,351.988 468.5,360.5C 467.732,359.737 467.232,358.737 467,357.5C 466.5,350.174 466.334,342.841 466.5,335.5 Z"/></g>
<g><path style="opacity:1" fill="#bdfdcf" d="M 606.5,306.5 C 606.56,305.957 606.893,305.624 607.5,305.5C 608.386,306.325 608.719,307.325 608.5,308.5C 608.832,345.337 608.498,382.004 607.5,418.5C 607.832,380.996 607.498,343.663 606.5,306.5 Z"/></g>
<g><path style="opacity:1" fill="#78e395" d="M 625.5,290.5 C 626.209,289.596 627.209,289.263 628.5,289.5C 628.5,316.833 628.5,344.167 628.5,371.5C 628.785,373.288 628.452,374.955 627.5,376.5C 626.849,378.847 625.516,380.514 623.5,381.5C 624.938,378.284 626.105,374.951 627,371.5C 627.5,344.835 627.667,318.169 627.5,291.5C 627.158,290.662 626.492,290.328 625.5,290.5 Z"/></g>
<g><path style="opacity:1" fill="#defae2" d="M 411.5,346.5 C 409.715,350.783 408.882,355.116 409,359.5C 407.855,358.316 406.688,358.316 405.5,359.5C 406.171,354.494 408.171,350.161 411.5,346.5 Z"/></g>
<g><path style="opacity:1" fill="#bdf8cb" d="M 670.5,351.5 C 670.741,353.898 670.074,355.898 668.5,357.5C 668.5,356.167 668.5,354.833 668.5,353.5C 669.167,352.833 669.833,352.167 670.5,351.5 Z"/></g>
<g><path style="opacity:1" fill="#8fe5a7" d="M 571.5,328.5 C 571.833,328.5 572.167,328.5 572.5,328.5C 572.5,368.167 572.5,407.833 572.5,447.5C 572.333,465.17 572.5,482.836 573,500.5C 573.383,499.944 573.883,499.611 574.5,499.5C 574.657,500.873 574.49,502.207 574,503.5C 573.333,504.833 572.667,504.833 572,503.5C 571.5,484.836 571.333,466.17 571.5,447.5C 571.5,407.833 571.5,368.167 571.5,328.5 Z"/></g>
<g><path style="opacity:1" fill="#cbf5d3" d="M 402.5,367.5 C 402.822,374.183 401.155,380.183 397.5,385.5C 398.421,379.19 400.088,373.19 402.5,367.5 Z"/></g>
<g><path style="opacity:1" fill="#81e79d" d="M 387.5,385.5 C 387.5,384.833 387.5,384.167 387.5,383.5C 387.956,377.798 389.623,372.464 392.5,367.5C 392.833,367.833 393.167,368.167 393.5,368.5C 392.237,374.598 390.237,380.264 387.5,385.5 Z"/></g>
<g><path style="opacity:1" fill="#8ee6aa" d="M 370.5,373.5 C 370.277,377.162 369.277,380.495 367.5,383.5C 367.723,379.838 368.723,376.505 370.5,373.5 Z"/></g>
<g><path style="opacity:1" fill="#cef7dc" d="M 666.5,367.5 C 665.811,373.234 664.478,378.567 662.5,383.5C 662.606,377.744 663.939,372.411 666.5,367.5 Z"/></g>
<g><path style="opacity:1" fill="#2ec056" d="M 595.5,313.5 C 593.64,315.283 591.974,317.283 590.5,319.5C 589.333,365.83 589.167,412.163 590,458.5C 590.383,459.056 590.883,459.389 591.5,459.5C 591.665,462.85 591.498,466.183 591,469.5C 590.794,466.377 590.127,463.377 589,460.5C 588.83,450.658 588.33,440.991 587.5,431.5C 587.5,394.833 587.5,358.167 587.5,321.5C 586.209,321.263 585.209,321.596 584.5,322.5C 583.391,322.557 582.391,322.89 581.5,323.5C 581.5,322.5 581.5,321.5 581.5,320.5C 585.458,321.428 588.125,320.094 589.5,316.5C 591.302,315.014 593.302,314.014 595.5,313.5 Z"/></g>
<g><path style="opacity:1" fill="#18ac4c" d="M 510.5,330.5 C 512.857,330.337 515.19,330.503 517.5,331C 518.056,331.383 518.389,331.883 518.5,332.5C 516.236,331.781 513.903,331.448 511.5,331.5C 511.5,396.833 511.5,462.167 511.5,527.5C 511.5,549.833 511.5,572.167 511.5,594.5C 508.612,595.01 506.279,594.344 504.5,592.5C 506.379,593.341 508.379,593.675 510.5,593.5C 510.5,505.833 510.5,418.167 510.5,330.5 Z"/></g>
<g><path style="opacity:1" fill="#2fb945" d="M 373.5,322.5 C 374.954,330.901 374.621,339.234 372.5,347.5C 371.326,348.514 370.66,349.847 370.5,351.5C 369.076,353.515 368.41,355.848 368.5,358.5C 364.533,369.707 362.2,381.374 361.5,393.5C 360.028,397.919 359.362,402.586 359.5,407.5C 359.167,407.5 358.833,407.5 358.5,407.5C 358.664,404.813 358.497,402.146 358,399.5C 357.722,400.416 357.222,401.082 356.5,401.5C 356.5,400.833 356.5,400.167 356.5,399.5C 357.037,394.149 357.704,388.816 358.5,383.5C 360.881,368.031 364.881,353.031 370.5,338.5C 370.856,332.923 371.856,327.59 373.5,322.5 Z"/></g>
<g><path style="opacity:1" fill="#92e9ae" d="M 487.5,335.5 C 487.5,346.167 487.5,356.833 487.5,367.5C 486.449,420.668 486.449,474.001 487.5,527.5C 487.167,527.5 486.833,527.5 486.5,527.5C 485.424,468.838 485.257,410.172 486,351.5C 486.173,345.984 486.673,340.651 487.5,335.5 Z"/></g>
<g><path style="opacity:1" fill="#56c571" d="M 661.5,385.5 C 661.554,388.992 660.554,391.992 658.5,394.5C 657.925,390.845 658.925,387.845 661.5,385.5 Z"/></g>
<g><path style="opacity:1" fill="#caf6d5" d="M 358.5,383.5 C 357.704,388.816 357.037,394.149 356.5,399.5C 355.833,401.833 355.167,404.167 354.5,406.5C 354.206,398.433 355.54,390.767 358.5,383.5 Z"/></g>
<g><path style="opacity:1" fill="#adeec0" d="M 387.5,383.5 C 387.5,384.167 387.5,384.833 387.5,385.5C 386.474,392.018 385.141,398.352 383.5,404.5C 383.66,402.801 383.494,401.134 383,399.5C 382.79,401.058 382.29,402.391 381.5,403.5C 382.609,397.544 383.942,391.544 385.5,385.5C 385.747,384.287 386.414,383.62 387.5,383.5 Z"/></g>
<g><path style="opacity:1" fill="#8ee2aa" d="M 397.5,385.5 C 397.59,388.152 396.924,390.485 395.5,392.5C 395.41,389.848 396.076,387.515 397.5,385.5 Z"/></g>
<g><path style="opacity:1" fill="#6cd189" d="M 367.5,387.5 C 367.741,389.898 367.074,391.898 365.5,393.5C 365.259,391.102 365.926,389.102 367.5,387.5 Z"/></g>
<g><path style="opacity:1" fill="#effbf3" d="M 377.5,325.5 C 378.403,330.6 379.403,335.6 380.5,340.5C 377.325,351.529 373.992,362.529 370.5,373.5C 368.723,376.505 367.723,379.838 367.5,383.5C 367.5,384.833 367.5,386.167 367.5,387.5C 365.926,389.102 365.259,391.102 365.5,393.5C 365.167,395.5 364.833,397.5 364.5,399.5C 362.656,404.551 361.656,409.884 361.5,415.5C 360.71,416.609 360.21,417.942 360,419.5C 359.501,415.514 359.334,411.514 359.5,407.5C 361.211,403.119 361.877,398.453 361.5,393.5C 362.2,381.374 364.533,369.707 368.5,358.5C 369.924,356.485 370.59,354.152 370.5,351.5C 370.66,349.847 371.326,348.514 372.5,347.5C 373.6,345.723 374.434,343.723 375,341.5C 375.333,335.833 375.667,330.167 376,324.5C 376.383,325.056 376.883,325.389 377.5,325.5 Z"/></g>
<g><path style="opacity:1" fill="#a6efbc" d="M 584.5,322.5 C 585.209,321.596 586.209,321.263 587.5,321.5C 587.5,358.167 587.5,394.833 587.5,431.5C 587.667,444.171 587.5,456.838 587,469.5C 586.478,472.281 585.311,474.615 583.5,476.5C 584.226,473.821 585.059,471.154 586,468.5C 586.167,444.167 586.333,419.833 586.5,395.5C 586.5,370.824 585.833,346.491 584.5,322.5 Z"/></g>
<g><path style="opacity:1" fill="#caf7d8" d="M 395.5,394.5 C 395.564,401.883 394.231,408.883 391.5,415.5C 392.473,408.32 393.806,401.32 395.5,394.5 Z"/></g>
<g><path style="opacity:1" fill="#cafeda" d="M 515.5,333.5 C 514.883,333.611 514.383,333.944 514,334.5C 513.5,421.166 513.333,507.833 513.5,594.5C 512.503,572.34 512.169,550.006 512.5,527.5C 512.5,462.5 512.5,397.5 512.5,332.5C 513.791,332.263 514.791,332.596 515.5,333.5 Z"/></g>
<g><path style="opacity:1" fill="#9be3ad" d="M 658.5,399.5 C 658.277,403.162 657.277,406.495 655.5,409.5C 655.723,405.838 656.723,402.505 658.5,399.5 Z"/></g>
<g><path style="opacity:1" fill="#c6f9d1" d="M 361.5,393.5 C 361.877,398.453 361.211,403.119 359.5,407.5C 359.362,402.586 360.028,397.919 361.5,393.5 Z"/></g>
<g><path style="opacity:1" fill="#7ad799" d="M 509.5,330.5 C 509.833,330.5 510.167,330.5 510.5,330.5C 510.5,418.167 510.5,505.833 510.5,593.5C 508.379,593.675 506.379,593.341 504.5,592.5C 504.5,592.167 504.5,591.833 504.5,591.5C 505.167,591.5 505.833,591.5 506.5,591.5C 507.209,592.404 508.209,592.737 509.5,592.5C 509.5,505.167 509.5,417.833 509.5,330.5 Z"/></g>
<g><path style="opacity:1" fill="#d9f7e3" d="M 383.5,404.5 C 383.5,406.5 383.5,408.5 383.5,410.5C 382.833,412.167 382.167,413.833 381.5,415.5C 381.347,407.957 380.347,407.957 378.5,415.5C 378.308,411.098 379.308,407.098 381.5,403.5C 382.29,402.391 382.79,401.058 383,399.5C 383.494,401.134 383.66,402.801 383.5,404.5 Z"/></g>
<g><path style="opacity:1" fill="#68d282" d="M 364.5,399.5 C 364.421,405.777 363.421,411.777 361.5,417.5C 361.5,416.833 361.5,416.167 361.5,415.5C 361.656,409.884 362.656,404.551 364.5,399.5 Z"/></g>
<g><path style="opacity:1" fill="#7bda91" d="M 356.5,399.5 C 356.5,400.167 356.5,400.833 356.5,401.5C 356.31,406.37 355.644,411.036 354.5,415.5C 354.5,413.833 354.5,412.167 354.5,410.5C 354.5,409.167 354.5,407.833 354.5,406.5C 355.167,404.167 355.833,401.833 356.5,399.5 Z"/></g>
<g><path style="opacity:1" fill="#e2feec" d="M 531.5,335.5 C 535.5,335.5 539.5,335.5 543.5,335.5C 544.5,335.5 545.5,335.5 546.5,335.5C 542.03,336.486 537.363,336.819 532.5,336.5C 532.333,422.834 532.5,509.167 533,595.5C 533.383,594.944 533.883,594.611 534.5,594.5C 534.107,596.284 533.441,597.95 532.5,599.5C 531.501,511.668 531.167,423.668 531.5,335.5 Z"/></g>
<g><path style="opacity:1" fill="#bbf1cb" d="M 358.5,407.5 C 358.833,407.5 359.167,407.5 359.5,407.5C 359.334,411.514 359.501,415.514 360,419.5C 360.21,417.942 360.71,416.609 361.5,415.5C 361.5,416.167 361.5,416.833 361.5,417.5C 359.876,430.434 359.209,443.434 359.5,456.5C 358.732,455.737 358.232,454.737 358,453.5C 357.5,446.174 357.334,438.841 357.5,431.5C 357.501,423.483 357.834,415.483 358.5,407.5 Z"/></g>
<g><path style="opacity:1" fill="#bef4ce" d="M 607.5,420.5 C 606.087,424.324 604.42,427.99 602.5,431.5C 602.784,428.368 603.617,425.368 605,422.5C 605.708,421.619 606.542,420.953 607.5,420.5 Z"/></g>
<g><path style="opacity:1" fill="#65d184" d="M 383.5,410.5 C 383.5,413.833 383.5,417.167 383.5,420.5C 382.833,421.833 382.167,423.167 381.5,424.5C 381.5,421.5 381.5,418.5 381.5,415.5C 382.167,413.833 382.833,412.167 383.5,410.5 Z"/></g>
<g><path style="opacity:1" fill="#b3ecbe" d="M 378.5,415.5 C 378.701,421.18 377.701,426.514 375.5,431.5C 375.591,425.853 376.591,420.52 378.5,415.5 Z"/></g>
<g><path style="opacity:1" fill="#d2fade" d="M 653.5,420.5 C 653.884,424.489 653.217,428.155 651.5,431.5C 651.116,427.511 651.783,423.845 653.5,420.5 Z"/></g>
<g><path style="opacity:1" fill="#32ba42" d="M 358.5,407.5 C 357.834,415.483 357.501,423.483 357.5,431.5C 356.67,439.99 356.17,448.657 356,457.5C 355.617,456.944 355.117,456.611 354.5,456.5C 353.597,453.609 353.264,450.609 353.5,447.5C 353.172,436.654 353.506,425.987 354.5,415.5C 355.644,411.036 356.31,406.37 356.5,401.5C 357.222,401.082 357.722,400.416 358,399.5C 358.497,402.146 358.664,404.813 358.5,407.5 Z"/></g>
<g><path style="opacity:1" fill="#c4f3ca" d="M 650.5,431.5 C 650.664,434.187 650.497,436.854 650,439.5C 649.617,440.056 649.117,440.389 648.5,440.5C 648.676,437.273 649.343,434.273 650.5,431.5 Z"/></g>
<g><path style="opacity:1" fill="#44b464" d="M 528.5,335.5 C 529.167,336.167 529.833,336.833 530.5,337.5C 530.167,425.169 530.5,512.836 531.5,600.5C 532.107,600.376 532.44,600.043 532.5,599.5C 533.441,597.95 534.107,596.284 534.5,594.5C 534.5,594.167 534.5,593.833 534.5,593.5C 534.833,593.5 535.167,593.5 535.5,593.5C 535.689,597.297 534.356,600.297 531.5,602.5C 528.142,601.475 525.142,600.141 522.5,598.5C 523.167,598.5 523.833,598.5 524.5,598.5C 525.568,599.434 526.901,599.768 528.5,599.5C 528.5,511.5 528.5,423.5 528.5,335.5 Z"/></g>
<g><path style="opacity:1" fill="#dffcea" d="M 354.5,410.5 C 354.5,412.167 354.5,413.833 354.5,415.5C 353.506,425.987 353.172,436.654 353.5,447.5C 352.341,436.007 352.174,424.341 353,412.5C 353.278,411.584 353.778,410.918 354.5,410.5 Z"/></g>
<g><path style="opacity:1" fill="#9aefb3" d="M 600.5,437.5 C 600.245,439.967 599.245,441.967 597.5,443.5C 597.755,441.033 598.755,439.033 600.5,437.5 Z"/></g>
<g><path style="opacity:1" fill="#5ec67c" d="M 375.5,431.5 C 375.5,434.167 375.5,436.833 375.5,439.5C 374.51,445.31 374.177,451.31 374.5,457.5C 373.835,454.351 373.502,451.018 373.5,447.5C 373.368,441.923 374.035,436.59 375.5,431.5 Z"/></g>
<g><path style="opacity:1" fill="#c1f6cd" d="M 391.5,415.5 C 390.654,431.484 390.321,447.484 390.5,463.5C 389.506,453.013 389.172,442.346 389.5,431.5C 389.527,425.949 390.194,420.616 391.5,415.5 Z"/></g>
<g><path style="opacity:1" fill="#f8fcfa" d="M 381.5,415.5 C 381.5,418.5 381.5,421.5 381.5,424.5C 381.354,428.519 381.021,432.519 380.5,436.5C 380.031,440.552 379.031,444.552 377.5,448.5C 378.356,451.606 379.356,454.606 380.5,457.5C 380.402,459.937 379.402,461.937 377.5,463.5C 376.749,462.624 376.249,461.624 376,460.5C 375.5,453.508 375.334,446.508 375.5,439.5C 375.5,436.833 375.5,434.167 375.5,431.5C 377.701,426.514 378.701,421.18 378.5,415.5C 380.347,407.957 381.347,407.957 381.5,415.5 Z"/></g>
<g><path style="opacity:1" fill="#bcf5c8" d="M 646.5,447.5 C 646.884,451.489 646.217,455.155 644.5,458.5C 644.808,454.64 645.475,450.974 646.5,447.5 Z"/></g>
<g><path style="opacity:1" fill="#e6fef0" d="M 504.5,329.5 C 506.216,329.629 507.883,329.962 509.5,330.5C 509.5,417.833 509.5,505.167 509.5,592.5C 508.209,592.737 507.209,592.404 506.5,591.5C 507.833,548.672 508.5,505.505 508.5,462C 508.333,418.833 508.167,375.667 508,332.5C 506.271,332.026 505.105,331.026 504.5,329.5 Z"/></g>
<g><path style="opacity:1" fill="#54c966" d="M 357.5,431.5 C 357.334,438.841 357.5,446.174 358,453.5C 358.232,454.737 358.732,455.737 359.5,456.5C 357.801,459.401 356.801,463.235 356.5,468C 357.069,471.817 357.403,475.651 357.5,479.5C 355.786,472.065 354.786,464.398 354.5,456.5C 355.117,456.611 355.617,456.944 356,457.5C 356.17,448.657 356.67,439.99 357.5,431.5 Z"/></g>
<g><path style="opacity:1" fill="#e8fbee" d="M 380.5,436.5 C 380.512,450.966 381.845,465.3 384.5,479.5C 383.732,478.737 383.232,477.737 383,476.5C 382.517,477.448 382.351,478.448 382.5,479.5C 381.5,479.5 380.5,479.5 379.5,479.5C 380.275,483.814 380.941,488.147 381.5,492.5C 379.75,487.391 378.417,482.058 377.5,476.5C 377.59,473.848 376.924,471.515 375.5,469.5C 375.167,465.5 374.833,461.5 374.5,457.5C 374.177,451.31 374.51,445.31 375.5,439.5C 375.334,446.508 375.5,453.508 376,460.5C 376.249,461.624 376.749,462.624 377.5,463.5C 379.402,461.937 380.402,459.937 380.5,457.5C 379.356,454.606 378.356,451.606 377.5,448.5C 379.031,444.552 380.031,440.552 380.5,436.5 Z"/></g>
<g><path style="opacity:1" fill="#a8efb8" d="M 562.5,333.5 C 559.411,334.785 556.078,335.451 552.5,335.5C 552.333,406.501 552.5,477.501 553,548.5C 553.383,547.944 553.883,547.611 554.5,547.5C 554.372,549.09 553.705,550.423 552.5,551.5C 551.501,538.183 551.167,524.85 551.5,511.5C 551.5,452.5 551.5,393.5 551.5,334.5C 555.154,334.058 558.821,333.724 562.5,333.5 Z"/></g>
<g><path style="opacity:1" fill="#4ec068" d="M 642.5,463.5 C 642.33,465.848 641.997,468.182 641.5,470.5C 641.36,472.03 640.693,473.03 639.5,473.5C 639.395,469.742 640.395,466.408 642.5,463.5 Z"/></g>
<g><path style="opacity:1" fill="#71da8c" d="M 390.5,463.5 C 391.525,466.974 392.192,470.64 392.5,474.5C 391.778,474.082 391.278,473.416 391,472.5C 390.502,469.518 390.335,466.518 390.5,463.5 Z"/></g>
<g><path style="opacity:1" fill="#a0ecb9" d="M 375.5,469.5 C 376.924,471.515 377.59,473.848 377.5,476.5C 376.076,474.485 375.41,472.152 375.5,469.5 Z"/></g>
<g><path style="opacity:1" fill="#e0fcec" d="M 487.5,367.5 C 487.253,426.179 487.92,484.846 489.5,543.5C 489.167,543.5 488.833,543.5 488.5,543.5C 487.512,538.36 487.179,533.026 487.5,527.5C 486.449,474.001 486.449,420.668 487.5,367.5 Z"/></g>
<g><path style="opacity:1" fill="#cafedb" d="M 527.5,335.5 C 527.833,335.5 528.167,335.5 528.5,335.5C 528.5,423.5 528.5,511.5 528.5,599.5C 526.901,599.768 525.568,599.434 524.5,598.5C 525.5,598.5 526.5,598.5 527.5,598.5C 527.5,510.833 527.5,423.167 527.5,335.5 Z"/></g>
<g><path style="opacity:1" fill="#83e7a2" d="M 531.5,335.5 C 531.167,423.668 531.501,511.668 532.5,599.5C 532.44,600.043 532.107,600.376 531.5,600.5C 530.5,512.836 530.167,425.169 530.5,337.5C 530.328,336.508 530.662,335.842 531.5,335.5 Z"/></g>
<g><path style="opacity:1" fill="#b8f2ca" d="M 384.5,479.5 C 386.277,482.505 387.277,485.838 387.5,489.5C 385.723,486.495 384.723,483.162 384.5,479.5 Z"/></g>
<g><path style="opacity:1" fill="#0bb338" d="M 487.5,321.5 C 487.5,326.167 487.5,330.833 487.5,335.5C 486.673,340.651 486.173,345.984 486,351.5C 485.257,410.172 485.424,468.838 486.5,527.5C 485.71,526.391 485.21,525.058 485,523.5C 484.667,516.5 484.333,509.5 484,502.5C 483.2,513.516 482.2,513.85 481,503.5C 480.167,458.163 480.333,412.83 481.5,367.5C 482.167,404.833 482.833,442.167 483.5,479.5C 484.409,430.493 484.909,381.493 485,332.5C 484.257,334.645 483.424,334.811 482.5,333C 483.078,331.189 483.578,329.355 484,327.5C 484.333,328.5 484.667,329.5 485,330.5C 485.841,327.372 486.675,324.372 487.5,321.5 Z"/></g>
<g><path style="opacity:1" fill="#a0e5b4" d="M 637.5,487.5 C 637.435,490.428 636.768,493.095 635.5,495.5C 635.294,492.505 635.96,489.838 637.5,487.5 Z"/></g>
<g><path style="opacity:1" fill="#d5f6df" d="M 469.5,391.5 C 470.317,393.969 470.817,396.635 471,399.5C 471.5,436.832 471.667,474.165 471.5,511.5C 469.951,524.635 469.285,537.968 469.5,551.5C 469.5,554.167 469.5,556.833 469.5,559.5C 469.167,559.5 468.833,559.5 468.5,559.5C 468.77,541.984 468.437,524.484 467.5,507C 467.906,503.155 468.406,499.321 469,495.5C 469.5,460.835 469.667,426.168 469.5,391.5 Z"/></g>
<g><path style="opacity:1" fill="#eefbf1" d="M 384.5,479.5 C 384.723,483.162 385.723,486.495 387.5,489.5C 398.435,519.458 416.435,544.458 441.5,564.5C 441.158,565.338 440.492,565.672 439.5,565.5C 412.746,547.077 393.412,522.744 381.5,492.5C 380.941,488.147 380.275,483.814 379.5,479.5C 380.5,479.5 381.5,479.5 382.5,479.5C 382.351,478.448 382.517,477.448 383,476.5C 383.232,477.737 383.732,478.737 384.5,479.5 Z"/></g>
<g><path style="opacity:1" fill="#24b93f" d="M 383.5,420.5 C 384.075,422.202 384.908,423.869 386,425.5C 386.167,438.18 386.667,450.846 387.5,463.5C 388.167,452.674 388.833,442.008 389.5,431.5C 389.172,442.346 389.506,453.013 390.5,463.5C 390.335,466.518 390.502,469.518 391,472.5C 391.278,473.416 391.778,474.082 392.5,474.5C 399.074,502.858 412.074,527.858 431.5,549.5C 434.5,553.167 437.833,556.5 441.5,559.5C 448.308,565.991 455.642,571.658 463.5,576.5C 464.568,577.434 465.901,577.768 467.5,577.5C 464.648,579.311 461.315,580.311 457.5,580.5C 455.413,579.084 453.413,578.25 451.5,578C 452.171,577.014 452.171,575.847 451.5,574.5C 452.423,575.303 453.423,575.47 454.5,575C 450.292,571.287 445.959,567.787 441.5,564.5C 416.435,544.458 398.435,519.458 387.5,489.5C 387.277,485.838 386.277,482.505 384.5,479.5C 381.845,465.3 380.512,450.966 380.5,436.5C 381.021,432.519 381.354,428.519 381.5,424.5C 382.167,423.167 382.833,421.833 383.5,420.5 Z"/></g>
<g><path style="opacity:1" fill="#7ddd94" d="M 631.5,511.5 C 631.59,514.152 630.924,516.485 629.5,518.5C 629.41,515.848 630.076,513.515 631.5,511.5 Z"/></g>
<g><path style="opacity:1" fill="#96eab2" d="M 566.5,519.5 C 566.029,521.579 565.363,523.579 564.5,525.5C 564.167,525.5 563.833,525.5 563.5,525.5C 563.755,523.033 564.755,521.033 566.5,519.5 Z"/></g>
<g><path style="opacity:1" fill="#c3f2cc" d="M 635.5,495.5 C 634.683,502.836 633.516,510.169 632,517.5C 629.66,524.355 627.827,531.355 626.5,538.5C 626.229,540.693 625.229,542.359 623.5,543.5C 625.396,535.115 627.396,526.782 629.5,518.5C 630.924,516.485 631.59,514.152 631.5,511.5C 632.215,505.897 633.548,500.564 635.5,495.5 Z"/></g>
<g><path style="opacity:1" fill="#a3e9b2" d="M 379.5,532.5 C 380.906,532.973 381.573,533.973 381.5,535.5C 380.094,535.027 379.427,534.027 379.5,532.5 Z"/></g>
<g><path style="opacity:1" fill="#24b74b" d="M 551.5,511.5 C 551.167,524.85 551.501,538.183 552.5,551.5C 553.705,550.423 554.372,549.09 554.5,547.5C 557.993,540.384 560.993,533.05 563.5,525.5C 563.833,525.5 564.167,525.5 564.5,525.5C 563.61,530.491 562.277,535.325 560.5,540C 561.731,541.183 561.731,542.349 560.5,543.5C 559.914,543.291 559.414,542.957 559,542.5C 558.667,545.5 558.333,548.5 558,551.5C 557.147,549.875 556.147,549.542 555,550.5C 553.184,553.442 551.684,556.442 550.5,559.5C 550.17,543.325 550.504,527.325 551.5,511.5 Z"/></g>
<g><path style="opacity:1" fill="#53c974" d="M 471.5,511.5 C 471.667,522.172 471.5,532.839 471,543.5C 470.817,546.365 470.317,549.031 469.5,551.5C 469.285,537.968 469.951,524.635 471.5,511.5 Z"/></g>
<g><path style="opacity:1" fill="#a0edb2" d="M 431.5,549.5 C 435.833,551.833 439.167,555.167 441.5,559.5C 437.833,556.5 434.5,553.167 431.5,549.5 Z"/></g>
<g><path style="opacity:1" fill="#7ec697" d="M 511.5,527.5 C 511.833,527.5 512.167,527.5 512.5,527.5C 512.169,550.006 512.503,572.34 513.5,594.5C 515.027,594.427 516.027,595.094 516.5,596.5C 514.597,596.204 512.93,595.537 511.5,594.5C 511.5,572.167 511.5,549.833 511.5,527.5 Z"/></g>
<g><path style="opacity:1" fill="#b7eec0" d="M 393.5,551.5 C 395.587,552.585 396.92,554.251 397.5,556.5C 395.413,555.415 394.08,553.749 393.5,551.5 Z"/></g>
<g><path style="opacity:1" fill="#a2f0bb" d="M 488.5,543.5 C 488.833,543.5 489.167,543.5 489.5,543.5C 490.194,548.805 490.528,554.138 490.5,559.5C 490.167,559.5 489.833,559.5 489.5,559.5C 489.167,554.167 488.833,548.833 488.5,543.5 Z"/></g>
<g><path style="opacity:1" fill="#baf3c8" d="M 623.5,546.5 C 623.048,550.163 622.548,553.83 622,557.5C 621.722,558.416 621.222,559.082 620.5,559.5C 620.425,554.808 621.425,550.474 623.5,546.5 Z"/></g>
<g><path style="opacity:1" fill="#6ad68c" d="M 549.5,559.5 C 549.38,562.578 548.38,565.245 546.5,567.5C 546.5,566.833 546.5,566.167 546.5,565.5C 547.508,563.456 548.508,561.456 549.5,559.5 Z"/></g>
<g><path style="opacity:1" fill="#d5f9dc" d="M 620.5,559.5 C 620.665,562.518 620.498,565.518 620,568.5C 619.257,571.192 618.09,573.525 616.5,575.5C 617.232,569.906 618.565,564.573 620.5,559.5 Z"/></g>
<g><path style="opacity:1" fill="#99edb2" d="M 441.5,564.5 C 445.959,567.787 450.292,571.287 454.5,575C 453.423,575.47 452.423,575.303 451.5,574.5C 447.462,571.488 443.462,568.488 439.5,565.5C 440.492,565.672 441.158,565.338 441.5,564.5 Z"/></g>
<g><path style="opacity:1" fill="#51c875" d="M 489.5,559.5 C 489.833,559.5 490.167,559.5 490.5,559.5C 490.998,564.152 491.331,568.819 491.5,573.5C 490.028,569.081 489.362,564.414 489.5,559.5 Z"/></g>
<g><path style="opacity:1" fill="#87e7a7" d="M 468.5,559.5 C 468.833,559.5 469.167,559.5 469.5,559.5C 469.612,565.726 468.946,571.726 467.5,577.5C 465.901,577.768 464.568,577.434 463.5,576.5C 464.833,576.5 466.167,576.5 467.5,576.5C 467.532,570.811 467.866,565.145 468.5,559.5 Z"/></g>
<g><path style="opacity:1" fill="#e6fdee" d="M 546.5,565.5 C 546.5,566.167 546.5,566.833 546.5,567.5C 542.312,575.884 538.645,584.551 535.5,593.5C 535.167,593.5 534.833,593.5 534.5,593.5C 534.5,590.167 534.5,586.833 534.5,583.5C 535.833,583.5 537.167,583.5 538.5,583.5C 537.131,580.618 537.798,578.118 540.5,576C 539.572,575.612 538.905,574.945 538.5,574C 538.8,571.976 539.633,571.476 541,572.5C 542.948,570.15 544.781,567.816 546.5,565.5 Z"/></g>
<g><path style="opacity:1" fill="#d8fde0" d="M 493.5,584.5 C 495.347,587.171 498.014,588.171 501.5,587.5C 501.5,588.5 501.5,589.5 501.5,590.5C 499.188,589.68 496.854,588.847 494.5,588C 493.663,586.989 493.33,585.822 493.5,584.5 Z"/></g>
<g><path style="opacity:1" fill="#dbf9e2" d="M 616.5,575.5 C 616.914,581.304 615.914,586.804 613.5,592C 616.78,592.056 619.78,592.889 622.5,594.5C 625.028,593.502 625.028,592.669 622.5,592C 623.944,591.219 625.277,591.386 626.5,592.5C 625.185,594.199 625.185,595.865 626.5,597.5C 624.176,596.344 621.843,595.344 619.5,594.5C 616.841,594.083 614.508,593.083 612.5,591.5C 613.215,585.897 614.548,580.564 616.5,575.5 Z"/></g>
<g><path style="opacity:1" fill="#c8f5cf" d="M 441.5,591.5 C 447.027,593.427 452.027,596.093 456.5,599.5C 451.681,597.363 446.681,595.696 441.5,594.5C 441.5,593.5 441.5,592.5 441.5,591.5 Z"/></g>
<g><path style="opacity:1" fill="#9cf4b4" d="M 612.5,591.5 C 614.508,593.083 616.841,594.083 619.5,594.5C 616.833,594.5 614.167,594.5 611.5,594.5C 611.263,593.209 611.596,592.209 612.5,591.5 Z"/></g>
<g><path style="opacity:1" fill="#d1f9da" d="M 456.5,599.5 C 462.844,600.472 463.844,603.139 459.5,607.5C 460.171,604.014 459.171,601.347 456.5,599.5 Z"/></g>
<g><path style="opacity:1" fill="#f2fbf5" d="M 609.5,603.5 C 613.839,602.846 617.673,603.846 621,606.5C 621.628,610.012 620.461,612.845 617.5,615C 614.334,616.557 611,617.39 607.5,617.5C 607.35,612.7 608.016,608.033 609.5,603.5 Z"/></g>
<g><path style="opacity:1" fill="#cdf6d5" d="M 626.5,597.5 C 628.755,598.087 630.421,599.42 631.5,601.5C 632.744,607.164 632.744,612.831 631.5,618.5C 629.408,620.605 627.075,622.272 624.5,623.5C 632.796,615.198 633.463,606.531 626.5,597.5 Z"/></g>
<g><path style="opacity:1" fill="#37b958" d="M 456.5,616.5 C 476.819,618.255 497.486,619.422 518.5,620C 526.296,621.762 526.296,622.595 518.5,622.5C 511.017,621.416 503.35,620.749 495.5,620.5C 482.173,619.945 468.84,619.611 455.5,619.5C 455.263,618.209 455.596,617.209 456.5,616.5 Z"/></g>
<g><path style="opacity:1" fill="#e0fae6" d="M 457.5,611.5 C 456.962,613.117 456.629,614.784 456.5,616.5C 455.596,617.209 455.263,618.209 455.5,619.5C 468.84,619.611 482.173,619.945 495.5,620.5C 492.452,622.119 489.119,623.119 485.5,623.5C 473.5,623.5 461.5,623.5 449.5,623.5C 449.561,618.678 450.727,618.345 453,622.5C 453.333,622.167 453.667,621.833 454,621.5C 454.179,618.447 454.679,615.447 455.5,612.5C 456.183,612.137 456.85,611.804 457.5,611.5 Z"/></g>
<g><path style="opacity:1" fill="#9beaaa" d="M 495.5,620.5 C 503.35,620.749 511.017,621.416 518.5,622.5C 507.679,623.495 496.679,623.828 485.5,623.5C 489.119,623.119 492.452,622.119 495.5,620.5 Z"/></g>
<g><path style="opacity:1" fill="#d1f9da" d="M 623.5,624.5 C 618,628.462 611.667,630.128 604.5,629.5C 610.82,628.16 617.153,626.493 623.5,624.5 Z"/></g>
<g><path style="opacity:1" fill="#adf0bf" d="M 603.5,631.5 C 603.435,634.428 602.768,637.095 601.5,639.5C 601.294,636.505 601.96,633.838 603.5,631.5 Z"/></g>
<g><path style="opacity:1" fill="#1bb34b" d="M 434.5,639.5 C 435.479,642.625 435.813,645.958 435.5,649.5C 489.5,649.5 543.5,649.5 597.5,649.5C 597.998,646.513 598.498,643.513 599,640.5C 599.383,639.944 599.883,639.611 600.5,639.5C 599.833,643.167 599.167,646.833 598.5,650.5C 543.833,650.5 489.167,650.5 434.5,650.5C 434.5,646.833 434.5,643.167 434.5,639.5 Z"/></g>
<g><path style="opacity:1" fill="#a9eebd" d="M 600.5,639.5 C 600.833,639.5 601.167,639.5 601.5,639.5C 600.838,643.466 600.505,647.466 600.5,651.5C 599.5,651.5 598.5,651.5 597.5,651.5C 542.997,651.832 488.664,651.499 434.5,650.5C 489.167,650.5 543.833,650.5 598.5,650.5C 599.167,646.833 599.833,643.167 600.5,639.5 Z"/></g>
<g><path style="opacity:1" fill="#d7fce4" d="M 433.5,639.5 C 433.833,639.5 434.167,639.5 434.5,639.5C 434.5,643.167 434.5,646.833 434.5,650.5C 488.664,651.499 542.997,651.832 597.5,651.5C 543.003,652.499 488.336,652.832 433.5,652.5C 433.5,648.167 433.5,643.833 433.5,639.5 Z"/></g>
<g><path style="opacity:1" fill="#8893f8" d="M 64.5,822.5 C 62.521,819.692 60.6876,816.692 59,813.5C 58.6667,813.833 58.3333,814.167 58,814.5C 55.7929,812.311 53.9596,809.978 52.5,807.5C 53.4897,804.849 54.4897,802.183 55.5,799.5C 57.959,809.125 63.959,815.292 73.5,818C 70.7568,820.038 67.7568,821.538 64.5,822.5 Z"/></g>
<g><path style="opacity:1" fill="#318af8" d="M 52.5,807.5 C 53.9596,809.978 55.7929,812.311 58,814.5C 58.3333,814.167 58.6667,813.833 59,813.5C 60.6876,816.692 62.521,819.692 64.5,822.5C 60.7583,826.316 57.7583,830.649 55.5,835.5C 52.1198,827.121 46.1198,821.455 37.5,818.5C 43.841,816.512 48.841,812.845 52.5,807.5 Z"/></g>
</svg>
