<?xml version="1.0" encoding="UTF-8"?>
<svg xmlns="http://www.w3.org/2000/svg" viewBox="0 0 800 800">
  <g fill="#009A44">
    <path d="M125 320 Q 125 320 125 700 L 75 700 Q 75 700 75 320 Z" />
    <path d="M200 380 Q 200 380 200 700 L 150 700 Q 150 700 150 380 Z" />
    <path d="M425 150 L 425 700 L 375 700 L 375 200 Z" />
    <path d="M500 200 L 500 700 L 450 700 L 450 250 Z" />
    <path d="M575 250 L 575 700 L 525 700 L 525 300 Z" />
    <path d="M650 300 L 650 700 L 600 700 L 600 350 Z" />
    <path d="M725 350 L 725 700 L 675 700 L 675 400 Z" />
    <path d="M275 330 Q 275 330 275 700 L 225 700 Q 225 700 225 330 Z" />
    <path d="M350 280 Q 350 280 350 700 L 300 700 Q 300 700 300 280 Z" />
    <path d="M425 150 Q 425 150 350 180 L 375 200 Z" />
    <path d="M500 200 Q 500 200 425 230 L 450 250 Z" />
    <path d="M575 250 Q 575 250 500 280 L 525 300 Z" />
    <path d="M650 300 Q 650 300 575 330 L 600 350 Z" />
    <path d="M725 350 Q 725 350 650 380 L 675 400 Z" />
    <path d="M350 180 L 425 150 L 450 100 L 375 130 Z" />
    <path d="M450 100 L 500 50 L 425 80 L 375 130 Z" />
  </g>
  <text x="75" y="600" font-family="Arial" font-size="120" font-weight="bold" fill="#009A44">Harp Bank</text>
</svg>
